<?xml version="1.0" encoding="utf-8"?>
<!-- Generator: Adobe Illustrator 21.1.0, SVG Export Plug-In . SVG Version: 6.00 Build 0)  -->
<svg version="1.1" xmlns="http://www.w3.org/2000/svg" xmlns:xlink="http://www.w3.org/1999/xlink" x="0px" y="0px"
	 viewBox="0 0 80 80" style="enable-background:new 0 0 80 80;" xml:space="preserve">
<style type="text/css">
	.st0{fill:#FFFFFF;}
	.st1{fill:#FF0000;stroke:#000000;stroke-miterlimit:10;}
</style>
<g id="Layer_2">
</g>
<g id="Layer_3">
	<g>
		<path class="st0" d="M22,63c-5.5,0-10-4.5-10-10V27c0-5.5,4.5-10,10-10h26c5.5,0,10,4.5,10,10v26c0,5.5-4.5,10-10,10H22z"/>
		<path d="M48,19c4.4,0,8,3.6,8,8v26c0,4.4-3.6,8-8,8H22c-4.4,0-8-3.6-8-8V27c0-4.4,3.6-8,8-8H48 M48,15H22c-6.6,0-12,5.4-12,12v26
			c0,6.6,5.4,12,12,12h26c6.6,0,12-5.4,12-12V27C60,20.4,54.6,15,48,15L48,15z"/>
	</g>
	<path class="st1" d="M32.5,39.5C45.2,28.8,54.3,21.6,67,11c4.9-4.1,12,2.9,7.1,7.1C61.4,28.7,48.7,39.4,36,50c-2.1,1.8-5,2-7.1,0
		c-7-6.9-14.1-13.9-21.1-20.8l0,0c-4.6-4.5,2.5-11.6,7.1-7.1L32.5,39.5z"/>
</g>
</svg>
