<svg id="Layer_1" data-name="Layer 1" xmlns="http://www.w3.org/2000/svg" viewBox="0 0 513 224"><defs><style>.cls-1{fill:#fff;}.cls-1,.cls-2{stroke:#ccc;stroke-miterlimit:10;stroke-width:8px;}.cls-2{fill:none;}</style></defs><title>Responsive _Icons</title><circle class="cls-1" cx="112" cy="112" r="108"/><circle class="cls-1" cx="112" cy="112" r="108"/><circle class="cls-1" cx="401" cy="112" r="108"/><circle class="cls-1" cx="144.35" cy="147.48" r="34.68" transform="translate(-130 77.26) rotate(-45)"/><path class="cls-1" d="M128.82,163a22,22,0,0,1,0-31" transform="translate(-68 -68)"/><path class="cls-1" d="M240.45,229.66a10,10,0,0,1-.06,14.08h0a10,10,0,0,1-14.08.06l-62.73-62.73c-4.24-4.24,3.31-3.31,7.18-7.18h0c3.87-3.87,2.72-11.2,7-7Z" transform="translate(-68 -68)"/><path class="cls-1" d="M177.72,195.22l-14.14-14.14c-4.24-4.24,3.31-3.31,7.18-7.18h0c3.87-3.87,2.72-11.2,7-7l14.14,14.14Z" transform="translate(-68 -68)"/><path class="cls-1" d="M522,134.14c0,7.57-4.61,13.86-10.29,13.86H424.29c-5.68,0-10.29-6.28-10.29-13.86v-3.43c0-7.57,4.61-13.71,10.29-13.71h87.43c5.68,0,10.29,6.14,10.29,13.71Z" transform="translate(-68 -68)"/><line class="cls-2" x1="385" y1="64" x2="439" y2="64"/><path class="cls-1" d="M522,181.71c0,7.57-4.61,13.29-10.29,13.29H424.29c-5.68,0-10.29-5.71-10.29-13.29v-3.43c0-7.57,4.61-13.29,10.29-13.29h87.43c5.68,0,10.29,5.71,10.29,13.29Z" transform="translate(-68 -68)"/><line class="cls-2" x1="385" y1="112" x2="439" y2="112"/><path class="cls-1" d="M522,229.29c0,7.57-4.61,13.71-10.29,13.71H424.29c-5.68,0-10.29-6.14-10.29-13.71v-3.43c0-7.57,4.61-13.86,10.29-13.86h87.43c5.68,0,10.29,6.28,10.29,13.86Z" transform="translate(-68 -68)"/><line class="cls-2" x1="385" y1="160" x2="439" y2="160"/></svg>