<?xml version="1.0" encoding="utf-8"?>
<!-- Generator: Adobe Illustrator 21.1.0, SVG Export Plug-In . SVG Version: 6.00 Build 0)  -->
<svg version="1.1" xmlns="http://www.w3.org/2000/svg" xmlns:xlink="http://www.w3.org/1999/xlink" x="0px" y="0px"
	 viewBox="0 0 80 80" style="enable-background:new 0 0 80 80;" xml:space="preserve">
<style type="text/css">
	.st0{display:none;}
	.st1{stroke:#000000;stroke-miterlimit:10;}
	.st2{fill:#333333;}
</style>
<g id="guides" class="st0">
</g>
<g id="Layer_2">
	<rect x="18.8" y="18.8" transform="matrix(0.7071 -0.7071 0.7071 0.7071 -16.5685 40)" class="st1" width="42.4" height="42.4"/>
	<g>
		<path class="st2" d="M10,40c30,0,30-30,30-30c0,30,30,30,30,30c-30,0-30,30-30,30C40,40,10,40,10,40z"/>
		<g>
			<path class="st2" d="M10,41.5c11.3-0.2,21.7-4.7,27.2-15c2.6-4.9,4.3-10.8,4.3-16.5c-1,0-2,0-3,0c0.2,11.3,4.7,21.7,15,27.2
				c4.9,2.6,10.8,4.3,16.5,4.3c0-1,0-2,0-3c-11.3,0.2-21.7,4.7-27.2,15c-2.6,4.9-4.3,10.8-4.3,16.5c1,0,2,0,3,0
				c-0.2-11.3-4.7-21.7-15-27.2c-4.9-2.6-10.8-4.3-16.5-4.3C8.1,38.5,8.1,41.5,10,41.5c4.6,0,9.4,1.3,13.5,3.2
				C33.7,49.5,38.3,59,38.5,70c0,1.9,3,1.9,3,0c0-4.6,1.3-9.4,3.2-13.5C49.5,46.3,59,41.7,70,41.5c1.9,0,1.9-3,0-3
				c-4.6,0-9.4-1.3-13.5-3.2C46.3,30.5,41.7,21,41.5,10c0-1.9-3-1.9-3,0c0,4.6-1.3,9.4-3.2,13.5C30.5,33.7,21,38.3,10,38.5
				C8.1,38.5,8.1,41.5,10,41.5z"/>
		</g>
	</g>
</g>
</svg>
