<?xml version="1.0" encoding="utf-8"?>
<!-- Generator: Adobe Illustrator 21.1.0, SVG Export Plug-In . SVG Version: 6.00 Build 0)  -->
<svg version="1.1" xmlns="http://www.w3.org/2000/svg" xmlns:xlink="http://www.w3.org/1999/xlink" x="0px" y="0px"
	 viewBox="0 0 80 80" style="enable-background:new 0 0 80 80;" xml:space="preserve">
<style type="text/css">
	.st0{fill:#FFFF00;}
</style>
<g id="Layer_2">
</g>
<g id="Layer_3">
	<g>
		<path class="st0" d="M33.1,64.4l6.9-3.5l6.9,3.5L40,77.9L33.1,64.4z M48.2,64l4.1-8.1l8-1.1l3,16.9L48.2,64z M19.6,54.8l8.1,1.1
			l4.1,8.1l-15.2,7.7L19.6,54.8z M60,46.9l6.6-6.2l11.3,10.6l-16.7,2.3L60,46.9z M2.1,51.3l11.3-10.6l6.6,6.2l-1.2,6.8L2.1,51.3z
			 M60,33.1l1.2-6.8l16.7,2.3L66.6,39.3L60,33.1z M2.1,28.7l16.7-2.3l1.2,6.8l-6.6,6.2L2.1,28.7z M52.4,24.1L48.2,16l15.2-7.7
			l-3,16.9L52.4,24.1z M16.6,8.3L31.8,16l-4.1,8.1l-8.1,1.1L16.6,8.3z M33.1,15.6L40,2.1l6.9,13.5L40,19.1L33.1,15.6z"/>
		<path d="M40,3.2l6.2,12.2L40,18.5l-6.2-3.2L40,3.2 M62.8,9.2L60,24.7l-7.3-1l-3.8-7.4L62.8,9.2 M17.2,9.2l13.8,7l-3.8,7.4l-7.3,1
			L17.2,9.2 M61.7,26.9L76.8,29l-10.2,9.6l-6-5.7L61.7,26.9 M18.3,26.9l1.1,6l-6,5.7L3.2,29L18.3,26.9 M66.6,41.4L76.8,51l-15.1,2.1
			l-1.1-6L66.6,41.4 M13.4,41.4l6,5.7l-1.1,6L3.2,51L13.4,41.4 M60,55.3l2.7,15.5l-13.8-7l3.8-7.4L60,55.3 M20,55.3l7.3,1l3.8,7.4
			l-13.8,7L20,55.3 M40,61.5l6.2,3.2L40,76.8l-6.2-12.2L40,61.5 M40,1l-7.6,14.8l7.6,3.8l7.6-3.8L40,1L40,1z M64.1,7.4l-16.5,8.4
			l4.5,8.8l8.8,1.2L64.1,7.4L64.1,7.4z M15.9,7.4l3.3,18.4l8.8-1.2l4.5-8.8L15.9,7.4L15.9,7.4z M60.8,25.8l-1.3,7.5l7.1,6.7L79,28.3
			L60.8,25.8L60.8,25.8z M19.2,25.8L1,28.3L13.4,40l7.1-6.7L19.2,25.8L19.2,25.8z M66.6,40l-7.1,6.7l1.3,7.5L79,51.7L66.6,40
			L66.6,40z M13.4,40L1,51.7l18.2,2.5l1.3-7.5L13.4,40L13.4,40z M60.8,54.2l-8.8,1.2l-4.5,8.8l16.5,8.4L60.8,54.2L60.8,54.2z
			 M19.2,54.2l-3.3,18.4l16.5-8.4l-4.5-8.8L19.2,54.2L19.2,54.2z M40,60.4l-7.6,3.8L40,79l7.6-14.8L40,60.4L40,60.4z"/>
	</g>
	<g>
		<path class="st0" d="M40,58c-10,0-18.1-7.8-18.1-17.5c0-9.6,8.1-17.5,18.1-17.5c10,0,18.1,7.8,18.1,17.5C58.1,50.2,50,58,40,58z"
			/>
		<path d="M40,23.6c9.7,0,17.6,7.6,17.6,17s-7.9,17-17.6,17s-17.6-7.6-17.6-17S30.3,23.6,40,23.6 M40,22.6c-10.3,0-18.6,8-18.6,18
			s8.3,18,18.6,18s18.6-8,18.6-18S50.3,22.6,40,22.6L40,22.6z"/>
	</g>
</g>
</svg>
